# xmcd CD database file
#
# Track frame offsets:
#	150
#	2939
#	24582
#	44180
#	54495
#	71559
#	91317
#	109477
#	119624
#	138599
#	159171
#	176941
#	178637
#	197849
#	208021
#	228353
#	243530
#	261256
#	273854
#	288928
#
# Disc length: 3856 seconds
#
# Revision: 0
# Processed by: cddbd v1.5.2PL0 Copyright (c) Steve Scherf et al.
# Submitted via: CDex 1.51
#
DISCID=320f0e14
DTITLE=Gravediggaz - Nightmare In A-Minor
DYEAR=2002
DGENRE=Hip Hop
TTITLE0=Mike Check Intro: Prince Paul (skit)
TTITLE1=Bloodshed
TTITLE2=False Things Must Perish feat. Prodigal Sunn
TTITLE3=Last Man Standing (skit)
TTITLE4=KIilling Fieldz
TTITLE5=Burn Baby Burn
TTITLE6=Wanna Break
TTITLE7=God Vs Devil
TTITLE8=Zig Zag Chamber
TTITLE9=Today's Mathematics
TTITLE10=Running Game On Real
TTITLE11=East Coast Vs West Coast (skit)
TTITLE12=Rest In Da East
TTITLE13=Guard Ya Shrine
TTITLE14=Nightmare In A-Minor feat. Beretta 9, 4th Disciple
TTITLE15=End Of The World
TTITLE16=Man Only Fears feat. Shogun
TTITLE17=Universal Shout Outs (skit)
TTITLE18=Da Crazies (skit)
TTITLE19=Crap
EXTD=YEAR: 2002
EXTT0=
EXTT1=
EXTT2=
EXTT3=
EXTT4=
EXTT5=
EXTT6=
EXTT7=
EXTT8=
EXTT9=
EXTT10=
EXTT11=
EXTT12=
EXTT13=
EXTT14=
EXTT15=
EXTT16=
EXTT17=
EXTT18=
EXTT19=
PLAYORDER=
